<svg width="1440" height="600" viewBox="0 0 1440 600" fill="none" xmlns="http://www.w3.org/2000/svg">
<path d="M0 8L1440 8.00013" stroke="#253659" stroke-width="0.5"/>
<path d="M155 8L155 600" stroke="#253659" stroke-width="0.5"/>
<path d="M1284 8L1284 600" stroke="#253659" stroke-width="0.5"/>
<path d="M250 224L1440 224" stroke="#253659" stroke-width="0.5"/>
<path d="M163 8C163 12.4183 159.418 16 155 16C150.582 16 147 12.4183 147 8C147 3.58172 150.582 0 155 0C159.418 0 163 3.58172 163 8Z" fill="#253659" fill-opacity="0.2"/>
<path d="M1292 8C1292 12.4183 1288.42 16 1284 16C1279.58 16 1276 12.4183 1276 8C1276 3.58172 1279.58 0 1284 0C1288.42 0 1292 3.58172 1292 8Z" fill="#253659" fill-opacity="0.2"/>
<path d="M160 8C160 10.7614 157.761 13 155 13C152.239 13 150 10.7614 150 8C150 5.23858 152.239 3 155 3C157.761 3 160 5.23858 160 8Z" fill="#253659"/>
<path d="M1289 8C1289 10.7614 1286.76 13 1284 13C1281.24 13 1279 10.7614 1279 8C1279 5.23858 1281.24 3 1284 3C1286.76 3 1289 5.23858 1289 8Z" fill="#253659"/>
</svg>
