<svg width="17" height="21" viewBox="0 0 17 21" fill="none" xmlns="http://www.w3.org/2000/svg">
<path fill-rule="evenodd" clip-rule="evenodd" d="M11.3418 17.994C14.5571 14.6837 17 12.1686 17 8.5C17 3.80558 13.1944 0 8.5 0C3.80558 0 0 3.80558 0 8.5C0 12.1686 2.44288 14.6837 5.65821 17.994C6.55725 18.9196 7.51669 19.9074 8.5 21C9.48331 19.9074 10.4427 18.9196 11.3418 17.994ZM8.5 12C10.433 12 12 10.433 12 8.5C12 6.567 10.433 5 8.5 5C6.567 5 5 6.567 5 8.5C5 10.433 6.567 12 8.5 12Z" fill="#009EE3"/>
</svg>
